<?xml version="1.0" encoding="utf-8"?>
<!-- Generator: Adobe Illustrator 15.0.2, SVG Export Plug-In . SVG Version: 6.00 Build 0)  -->
<!DOCTYPE svg PUBLIC "-//W3C//DTD SVG 1.1//EN" "http://www.w3.org/Graphics/SVG/1.1/DTD/svg11.dtd">
<svg version="1.1" xmlns="http://www.w3.org/2000/svg" xmlns:xlink="http://www.w3.org/1999/xlink"
	 width="15px" height="15px" viewBox="-7 -7 15 15" xml:space="preserve">
<g>
	
		<animateTransform  fill="remove" type="rotate" accumulate="none" from="0" attributeType="XML" restart="always" to="360" attributeName="transform" additive="replace" calcMode="linear" begin="0s" dur="1s" repeatCount="indefinite" xmlns="http://www.w3.org/2000/svg">
		</animateTransform>
	<g>
		<rect x="5" y="-5" width="1" height="1"/>
		<rect x="4" y="-4" width="1" height="1"/>
		<rect x="3" y="-3" width="1" height="1"/>
		<rect x="2" y="-2" width="1" height="1"/>
		<rect x="1" y="-1" width="1" height="1"/>
	</g>
	<g>
		<rect x="-4" y="-5" width="1" height="1"/>
		<rect x="-4" y="-1" width="1" height="1"/>
		<rect x="-5" y="-2" width="1" height="1"/>
		<rect x="-6" y="-3" width="1" height="1"/>
		<rect x="-5" y="-4" width="1" height="1"/>
		<rect x="-4" y="-3" width="1" height="1"/>
		<rect x="-3" y="-4" width="1" height="1"/>
		<rect x="-2" y="-3" width="1" height="1"/>
		<rect x="-3" y="-2" width="1" height="1"/>
	</g>
	<g>
		<rect x="-4" y="3" width="1" height="1"/>
		<rect x="-3" y="2" width="1" height="1"/>
		<rect x="-2" y="1" width="1" height="1"/>
		<rect x="-1" y="2" width="1" height="1"/>
		<rect y="3" width="1" height="1"/>
		<rect x="1" y="2" width="1" height="1"/>
		<rect x="2" y="1" width="1" height="1"/>
		<rect x="3" y="2" width="1" height="1"/>
		<rect x="4" y="3" width="1" height="1"/>
	</g>
</g>
</svg>

