<?xml version="1.0" encoding="UTF-8" standalone="no"?>
<!-- Created with Inkscape (http://www.inkscape.org/) -->

<svg
   xmlns:dc="http://purl.org/dc/elements/1.1/"
   xmlns:cc="http://creativecommons.org/ns#"
   xmlns:rdf="http://www.w3.org/1999/02/22-rdf-syntax-ns#"
   xmlns:svg="http://www.w3.org/2000/svg"
   xmlns="http://www.w3.org/2000/svg"
   xmlns:sodipodi="http://sodipodi.sourceforge.net/DTD/sodipodi-0.dtd"
   xmlns:inkscape="http://www.inkscape.org/namespaces/inkscape"
   width="1052.3622"
   height="744.09448"
   id="svg2"
   version="1.1"
   inkscape:version="0.48.1 r9760"
   sodipodi:docname="process01.svg">
  <defs
     id="defs4">
    <marker
       inkscape:stockid="Torso"
       orient="auto"
       refY="0"
       refX="0"
       id="Torso"
       style="overflow:visible">
      <g
         id="g4291"
         transform="scale(0.7,0.7)">
        <path
           id="path4293"
           d="m -4.7792281,-3.239542 c 2.350374,0.3659393 5.30026732,1.9375477 5.03715532,3.62748546 C -0.00518779,2.0778819 -2.2126741,2.6176539 -4.5630471,2.2517169 -6.9134221,1.8857769 -8.521035,0.75201414 -8.257922,-0.93792336 -7.994809,-2.6278615 -7.1296041,-3.6054813 -4.7792281,-3.239542 z"
           style="fill:none;stroke:#000000;stroke-width:1.25;marker-start:none;marker-mid:none;marker-end:none"
           inkscape:connector-curvature="0" />
        <path
           id="path4295"
           d="M 4.4598789,0.08866574 C -2.5564571,-4.378332 5.2248769,-3.9061806 -0.84829578,-8.7197331"
           style="fill:none;stroke:#000000;stroke-width:1pt;marker-end:none"
           inkscape:connector-curvature="0" />
        <path
           id="path4297"
           d="M 4.9298719,0.05752074 C -1.3872731,1.7494689 1.8027579,5.4782079 -4.9448731,7.5462725"
           style="fill:none;stroke:#000000;stroke-width:1pt;marker-start:none;marker-end:none"
           inkscape:connector-curvature="0" />
        <rect
           id="rect4299"
           transform="matrix(0.527536,-0.849533,0.887668,0.460484,0,0)"
           y="-1.7408575"
           x="-10.391706"
           height="2.7608147"
           width="2.6366582"
           style="fill-rule:evenodd;stroke-width:1pt;marker-end:none" />
        <rect
           id="rect4301"
           transform="matrix(0.671205,-0.741272,0.790802,0.612072,0,0)"
           y="-7.9629307"
           x="4.9587269"
           height="2.8614161"
           width="2.7327356"
           style="fill-rule:evenodd;stroke-width:1pt;marker-end:none" />
        <path
           id="path4303"
           transform="matrix(0,-1.109517,1.109517,0,25.96648,19.71619)"
           d="m 16.779951,-28.685045 a 0.60731727,0.60731727 0 1 1 -1.214634,0 0.60731727,0.60731727 0 1 1 1.214634,0 z"
           sodipodi:ry="0.60731727"
           sodipodi:rx="0.60731727"
           sodipodi:cy="-28.685045"
           sodipodi:cx="16.172634"
           style="fill:#ff0000;fill-opacity:0.75;fill-rule:evenodd;stroke:#000000;stroke-width:1pt;marker-start:none;marker-end:none"
           sodipodi:type="arc" />
        <path
           id="path4305"
           transform="matrix(0,-1.109517,1.109517,0,26.8245,16.99126)"
           d="m 16.779951,-28.685045 a 0.60731727,0.60731727 0 1 1 -1.214634,0 0.60731727,0.60731727 0 1 1 1.214634,0 z"
           sodipodi:ry="0.60731727"
           sodipodi:rx="0.60731727"
           sodipodi:cy="-28.685045"
           sodipodi:cx="16.172634"
           style="fill:#ff0000;fill-opacity:0.75;fill-rule:evenodd;stroke:#000000;stroke-width:1pt;marker-start:none;marker-end:none"
           sodipodi:type="arc" />
      </g>
    </marker>
    <marker
       inkscape:stockid="TriangleOutM"
       orient="auto"
       refY="0"
       refX="0"
       id="TriangleOutM"
       style="overflow:visible">
      <path
         id="path4224"
         d="m 5.77,0 -8.65,5 0,-10 8.65,5 z"
         style="fill-rule:evenodd;stroke:#000000;stroke-width:1pt;marker-start:none"
         transform="scale(0.4,0.4)"
         inkscape:connector-curvature="0" />
    </marker>
    <marker
       inkscape:stockid="Arrow2Mend"
       orient="auto"
       refY="0"
       refX="0"
       id="Arrow2Mend"
       style="overflow:visible">
      <path
         id="path4105"
         style="font-size:12px;fill-rule:evenodd;stroke-width:0.625;stroke-linejoin:round"
         d="M 8.7185878,4.0337352 -2.2072895,0.01601326 8.7185884,-4.0017078 c -1.7454984,2.3720609 -1.7354408,5.6174519 -6e-7,8.035443 z"
         transform="scale(-0.6,-0.6)"
         inkscape:connector-curvature="0" />
    </marker>
    <marker
       inkscape:stockid="TriangleOutL"
       orient="auto"
       refY="0"
       refX="0"
       id="TriangleOutL"
       style="overflow:visible">
      <path
         id="path4221"
         d="m 5.77,0 -8.65,5 0,-10 8.65,5 z"
         style="fill-rule:evenodd;stroke:#000000;stroke-width:1pt;marker-start:none"
         transform="scale(0.8,0.8)"
         inkscape:connector-curvature="0" />
    </marker>
    <marker
       inkscape:stockid="Arrow1Mend"
       orient="auto"
       refY="0"
       refX="0"
       id="Arrow1Mend"
       style="overflow:visible">
      <path
         id="path4087"
         d="M 0,0 5,-5 -12.5,0 5,5 0,0 z"
         style="fill-rule:evenodd;stroke:#000000;stroke-width:1pt;marker-start:none"
         transform="matrix(-0.4,0,0,-0.4,-4,0)"
         inkscape:connector-curvature="0" />
    </marker>
    <marker
       inkscape:stockid="Arrow2Lend"
       orient="auto"
       refY="0"
       refX="0"
       id="Arrow2Lend"
       style="overflow:visible">
      <path
         id="path4099"
         style="font-size:12px;fill-rule:evenodd;stroke-width:0.625;stroke-linejoin:round"
         d="M 8.7185878,4.0337352 -2.2072895,0.01601326 8.7185884,-4.0017078 c -1.7454984,2.3720609 -1.7354408,5.6174519 -6e-7,8.035443 z"
         transform="matrix(-1.1,0,0,-1.1,-1.1,0)"
         inkscape:connector-curvature="0" />
    </marker>
    <marker
       inkscape:stockid="Arrow1Lend"
       orient="auto"
       refY="0"
       refX="0"
       id="Arrow1Lend"
       style="overflow:visible">
      <path
         id="path4081"
         d="M 0,0 5,-5 -12.5,0 5,5 0,0 z"
         style="fill-rule:evenodd;stroke:#000000;stroke-width:1pt;marker-start:none"
         transform="matrix(-0.8,0,0,-0.8,-10,0)"
         inkscape:connector-curvature="0" />
    </marker>
  </defs>
  <sodipodi:namedview
     id="base"
     pagecolor="#ffffff"
     bordercolor="#666666"
     borderopacity="1.0"
     inkscape:pageopacity="0.0"
     inkscape:pageshadow="2"
     inkscape:zoom="0.87877464"
     inkscape:cx="647.95543"
     inkscape:cy="193.036"
     inkscape:document-units="px"
     inkscape:current-layer="text2985"
     showgrid="false"
     inkscape:window-width="1390"
     inkscape:window-height="835"
     inkscape:window-x="60"
     inkscape:window-y="76"
     inkscape:window-maximized="0"
     inkscape:connector-spacing="61">
    <inkscape:grid
       type="xygrid"
       id="grid3084"
       empspacing="5"
       visible="true"
       enabled="true"
       snapvisiblegridlinesonly="true" />
  </sodipodi:namedview>
  <metadata
     id="metadata7">
    <rdf:RDF>
      <cc:Work
         rdf:about="">
        <dc:format>image/svg+xml</dc:format>
        <dc:type
           rdf:resource="http://purl.org/dc/dcmitype/StillImage" />
      </cc:Work>
    </rdf:RDF>
  </metadata>
  <g
     inkscape:label="Calque 1"
     inkscape:groupmode="layer"
     id="layer1"
     transform="translate(0,-308.2677)">
    <g
       style="font-size:130.56945801px;font-style:normal;font-variant:normal;font-weight:bold;font-stretch:normal;line-height:125%;letter-spacing:0px;word-spacing:0px;fill:#000000;fill-opacity:1;stroke:none;font-family:Avara;-inkscape-font-specification:Avara Bold"
       id="text2985">
      <rect
         style="fill:#e6e6e6;stroke:none"
         id="rect4030"
         width="138.09805"
         height="58.399677"
         x="369.54922"
         y="859.76361" />
      <text
         xml:space="preserve"
         style="font-size:55.30748749px;font-style:normal;font-variant:normal;font-weight:bold;font-stretch:normal;line-height:125%;letter-spacing:0px;word-spacing:0px;fill:#000000;fill-opacity:1;stroke:none;font-family:Avara;-inkscape-font-specification:Avara Bold"
         x="437.54858"
         y="898.78949"
         id="text4065"
         sodipodi:linespacing="125%"><tspan
           sodipodi:role="line"
           id="tspan4067"
           x="437.54858"
           y="898.78949"
           style="font-size:31.61289787px;font-style:normal;font-variant:normal;font-weight:bold;font-stretch:normal;text-align:center;text-anchor:middle;fill:#000000;stroke:none;font-family:Cousine;-inkscape-font-specification:Cousine Bold">not OK</tspan></text>
      <rect
         y="1012.9436"
         x="879.57678"
         height="36.580154"
         width="169.67305"
         id="rect3111"
         style="fill:#000000;fill-opacity:1;fill-rule:nonzero;stroke:none" />
      <g
         style="fill:#ffffff"
         transform="matrix(0.12452545,0,0,0.12452545,1058.1023,992.63163)"
         id="g3079">
        <path
           style="fill:#ffffff"
           d="m -1312.52,345.36532 5.2227,5.22278 31.3367,0 10.4456,-20.89112 5.2227,0 0,26.11389 -78.3416,0 10.4455,-10.44555 0,-83.56446 -10.4455,-10.44555 36.5594,0 -10.4455,10.44555 0,83.56446"
           id="path3081"
           inkscape:connector-curvature="0" />
        <path
           style="fill:#ffffff"
           d="m -1252.2889,293.13753 26.1139,-10.44555 0,62.67334 10.4456,10.44555 -36.5595,0 10.4456,-10.44555 0,-47.00501 -10.4456,-5.22278 m 15.6684,-15.66833 -10.4456,-5.22278 0,-5.22278 5.2228,-10.44555 5.2228,0 10.4455,5.22277 0,5.22278 -5.2227,10.44556 -5.2228,0"
           id="path3083"
           inkscape:connector-curvature="0" />
        <path
           style="fill:#ffffff"
           d="m -1202.5704,261.80086 0,94.01001 10.4455,-10.44555 5.2228,5.22278 10.4455,5.22277 10.4456,0 15.6683,-5.22277 10.4456,-20.89112 0,-20.89111 -10.4456,-20.89111 -15.6683,-5.22278 -10.4456,0 -10.4455,5.22278 0,-41.78223 -26.1139,10.44556 10.4456,5.22277 m 31.3366,26.1139 10.4456,5.22277 5.2228,26.1139 -5.2228,26.11389 -10.4456,5.22278 -10.4455,-5.22278 -5.2228,-10.44556 0,-31.33667 5.2228,-10.44556 10.4455,-5.22277"
           id="path3085"
           inkscape:connector-curvature="0" />
        <path
           style="fill:#ffffff"
           d="m -1102.8972,282.69198 0,20.89111 10.4456,-15.66833 10.4456,-5.22278 10.4455,5.22278 5.2228,10.44555 -15.6683,10.44556 -5.2228,-10.44556 -5.2228,0 -10.4456,15.66834 0,31.33667 10.4456,10.44555 -36.5594,0 10.4455,-10.44555 0,-47.00501 -10.4455,-5.22278 26.1138,-10.44555"
           id="path3087"
           inkscape:connector-curvature="0" />
        <path
           style="fill:#ffffff"
           d="m -1032.8098,282.69198 10.4456,0 15.6683,5.22278 10.44558,20.89111 -5.22278,10.44556 -41.7822,5.22277 5.2228,20.89112 15.6683,5.22278 10.4455,-5.22278 5.2228,-10.44556 10.44558,5.22278 -10.44558,10.44556 -10.4455,5.22277 -15.6684,0 -15.6683,-5.22277 -10.4456,-20.89112 0,-20.89111 10.4456,-20.89111 15.6683,-5.22278 m 5.2228,5.22278 -10.4455,5.22277 -5.2228,26.1139 26.1139,-5.22278 0,-20.89112 -10.4456,-5.22277"
           id="path3089"
           inkscape:connector-curvature="0" />
        <path
           style="fill:#ffffff"
           d="m -862.66342,324.4742 -37.08173,0 -7.44246,20.89112 10.44556,10.44555 -31.33667,0 10.44556,-10.44555 31.33667,-83.56446 0,-5.22277 15.66833,-5.22278 31.07553,94.01001 11.75125,10.44555 -32.64236,0 5.22278,-10.44555 -7.44246,-20.89112 m -1.82797,-5.22277 -16.58233,-47.00501 -16.84346,47.00501 33.42579,0"
           id="path3091"
           inkscape:connector-curvature="0" />
        <path
           style="fill:#ffffff"
           d="m -780.54683,303.58309 -5.22278,-15.66833 -10.44556,0 -10.44556,5.22277 0,10.44556 36.55945,15.66834 5.22278,10.44555 -10.44556,20.89112 -20.89111,5.22277 -5.22278,0 -15.66833,-5.22277 -10.44556,-10.44556 10.44556,-10.44556 5.22278,15.66834 10.44555,5.22278 15.66834,-5.22278 5.22278,-5.22278 0,-5.22278 -36.55945,-20.89111 -5.22278,-10.44556 5.22278,-15.66833 15.66833,-5.22278 20.89112,0 10.44555,10.44555 -10.44555,10.44556"
           id="path3093"
           inkscape:connector-curvature="0" />
        <path
           style="fill:#ffffff"
           d="m -712.71193,303.58309 -5.22278,-15.66833 -10.44556,0 -10.44556,5.22277 0,10.44556 36.55945,15.66834 5.22278,10.44555 -10.44556,20.89112 -20.89111,5.22277 -5.22278,0 -15.66833,-5.22277 -10.44556,-10.44556 10.44556,-10.44556 5.22278,15.66834 10.44555,5.22278 15.66834,-5.22278 5.22278,-5.22278 0,-5.22278 -36.55945,-20.89111 -5.22278,-10.44556 5.22278,-15.66833 15.66833,-5.22278 20.89112,0 10.44555,10.44555 -10.44555,10.44556"
           id="path3095"
           inkscape:connector-curvature="0" />
        <path
           style="fill:#ffffff"
           d="m -663.15676,282.69198 10.44556,0 15.66833,5.22278 10.44556,20.89111 -5.22278,10.44556 -41.78223,5.22277 5.22278,20.89112 15.66834,5.22278 10.44555,-5.22278 5.22278,-10.44556 10.44556,5.22278 -10.44556,10.44556 -10.44555,5.22277 -15.66834,0 -15.66833,-5.22277 -10.44556,-20.89112 0,-20.89111 10.44556,-20.89111 15.66833,-5.22278 m 5.22278,5.22278 -10.44556,5.22277 -5.22278,26.1139 26.1139,-5.22278 0,-20.89112 -10.44556,-5.22277"
           id="path3097"
           inkscape:connector-curvature="0" />
        <path
           style="fill:#ffffff"
           d="m -623.33279,355.81087 10.44556,-10.44555 0,-47.00501 -10.44556,-5.22278 26.11389,-10.44555 0,15.66833 10.44556,-10.44555 10.44556,-5.22278 20.89111,5.22278 5.22278,10.44555 10.44555,-10.44555 10.44556,-5.22278 20.89111,5.22278 5.22278,10.44555 0,47.00501 10.44556,10.44555 -36.55945,0 10.44556,-10.44555 0,-47.00501 -5.22278,-5.22278 -10.44556,0 -15.66833,15.66834 0,36.55945 10.44555,10.44555 -36.55944,0 0,0 10.44555,-10.44555 0,-47.00501 -5.22278,-5.22278 -10.44555,0 -15.66834,15.66834 0,36.55945 10.44556,10.44555 -36.55945,0"
           id="path3099"
           inkscape:connector-curvature="0" />
        <path
           style="fill:#ffffff"
           d="m -482.31777,261.80086 0,94.01001 10.44555,-10.44555 5.22278,5.22278 10.44556,5.22277 10.44555,0 15.66834,-5.22277 10.44556,-20.89112 0,-20.89111 -10.44556,-20.89111 -15.66834,-5.22278 -10.44555,0 -10.44556,5.22278 0,-41.78223 -26.11389,10.44556 10.44556,5.22277 m 31.33667,26.1139 10.44555,5.22277 5.22278,26.1139 -5.22278,26.11389 -10.44555,5.22278 -10.44556,-5.22278 -5.22278,-10.44556 0,-31.33667 5.22278,-10.44556 10.44556,-5.22277"
           id="path3101"
           inkscape:connector-curvature="0" />
        <path
           style="fill:#ffffff"
           d="m -415.18697,256.57809 26.11389,-10.44556 0,99.23279 10.44556,10.44555 -36.55945,0 10.44556,-10.44555 0,-83.56446 -10.44556,-5.22277"
           id="path3103"
           inkscape:connector-curvature="0" />
        <path
           style="fill:#ffffff"
           d="m -356.26706,282.69198 15.66833,0 20.89111,10.44555 0,52.22779 10.44556,0 0,5.22278 -15.66833,5.22277 -10.44556,-10.44555 -5.22278,5.22278 -15.66833,5.22277 -5.22278,0 -10.44556,-20.89111 0,-15.66833 36.55945,-10.44556 0,-10.44556 -5.22278,-10.44555 -15.66833,5.22277 -5.22278,10.44556 -10.44556,-10.44556 15.66834,-10.44555 m 20.89111,31.33667 -20.89111,10.44555 0,10.44556 5.22277,10.44556 5.22278,0 10.44556,-10.44556 0,-20.89111"
           id="path3105"
           inkscape:connector-curvature="0" />
        <path
           style="fill:#ffffff"
           d="m -237.63289,277.73034 5.22277,15.66833 -5.22277,0 -13.57923,-2.08911 8.35645,12.53467 0,15.66833 -5.22278,5.22278 -15.66834,10.44556 -15.66833,5.22278 26.11389,10.44555 15.66834,15.66834 0,10.44556 -10.44556,15.66833 -15.66834,5.22278 -10.44555,0 -20.89111,-5.22278 -10.44556,-15.66833 0,-10.44556 20.89111,-15.66834 -15.66833,-5.22277 5.22278,-5.22278 15.66833,-5.22278 -15.66833,-5.22278 -10.44556,-10.44556 0,-15.66833 10.44556,-15.66834 15.66833,-5.22277 10.44556,0 15.66833,5.22277 5.22278,-5.22277 10.44556,-5.22278 m -36.55945,10.44555 -10.44556,5.22278 -5.22277,15.66834 5.22277,15.66833 10.44556,5.22278 10.44555,-5.22278 5.22278,-15.66833 -5.22278,-15.66834 -10.44555,-5.22278 m -5.22278,67.89612 -10.44555,10.44556 0,10.44556 10.44555,10.44555 20.89111,5.22278 5.22278,-10.44556 0,-10.44555 -10.44556,-10.44556 -15.66833,-5.22278"
           id="path3107"
           inkscape:connector-curvature="0" />
        <path
           style="fill:#ffffff"
           d="m -202.66284,282.69198 10.44555,0 15.66834,5.22278 10.44555,20.89111 -5.22277,10.44556 -41.78223,5.22277 5.22278,20.89112 15.66833,5.22278 10.44556,-5.22278 5.22278,-10.44556 10.44555,5.22278 -10.44555,10.44556 -10.44556,5.22277 -15.66833,0 -15.66834,-5.22277 -10.44555,-20.89112 0,-20.89111 10.44555,-20.89111 15.66834,-5.22278 m 5.22277,5.22278 -10.44555,5.22277 -5.22278,26.1139 26.11389,-5.22278 0,-20.89112 -10.44556,-5.22277"
           id="path3109"
           inkscape:connector-curvature="0" />
      </g>
      <rect
         style="fill:#e6e6e6;stroke:none"
         id="rect3966"
         width="116.1123"
         height="58.399677"
         x="60.970341"
         y="666.04688" />
      <text
         xml:space="preserve"
         style="font-size:42.83774948px;font-style:normal;font-variant:normal;font-weight:bold;font-stretch:normal;line-height:125%;letter-spacing:0px;word-spacing:0px;fill:#000000;fill-opacity:1;stroke:none;font-family:Avara;-inkscape-font-specification:Avara Bold"
         x="85.064209"
         y="705.23505"
         id="text3968"
         sodipodi:linespacing="125%"><tspan
           sodipodi:role="line"
           id="tspan3970"
           x="85.064209"
           y="705.23505"
           style="font-style:normal;font-variant:normal;font-weight:bold;font-stretch:normal;fill:#000000;stroke:none;font-family:Cousine;-inkscape-font-specification:Cousine Bold">V.<tspan
   style="font-size:27.84493065px;baseline-shift:sub;fill:#000000;stroke:none"
   id="tspan3972">X</tspan></tspan></text>
      <rect
         y="671.97119"
         x="862.46552"
         height="58.399677"
         width="144.96861"
         id="rect4010"
         style="fill:#e6e6e6;stroke:none" />
      <text
         sodipodi:linespacing="125%"
         id="text4012"
         y="711.15936"
         x="884.77307"
         style="font-size:42.83774948px;font-style:normal;font-variant:normal;font-weight:bold;font-stretch:normal;line-height:125%;letter-spacing:0px;word-spacing:0px;fill:#000000;fill-opacity:1;stroke:none;font-family:Avara;-inkscape-font-specification:Avara Bold"
         xml:space="preserve"><tspan
           style="font-style:normal;font-variant:normal;font-weight:bold;font-stretch:normal;fill:#000000;stroke:none;font-family:Cousine;-inkscape-font-specification:Cousine Bold"
           y="711.15936"
           x="884.77307"
           id="tspan4014"
           sodipodi:role="line">V.<tspan
   id="tspan4016"
   style="font-size:27.84493065px;baseline-shift:sub;fill:#000000;stroke:none">X+1</tspan></tspan></text>
      <rect
         y="477.18195"
         x="196.84322"
         height="58.399677"
         width="116.1123"
         id="rect4020"
         style="fill:#e6e6e6;stroke:none" />
      <text
         sodipodi:linespacing="125%"
         id="text4022"
         y="518.24823"
         x="254.0611"
         style="font-size:55.30748749px;font-style:normal;font-variant:normal;font-weight:bold;font-stretch:normal;line-height:125%;letter-spacing:0px;word-spacing:0px;fill:#000000;fill-opacity:1;stroke:none;font-family:Avara;-inkscape-font-specification:Avara Bold"
         xml:space="preserve"><tspan
           style="font-size:31.61289787px;font-style:normal;font-variant:normal;font-weight:bold;font-stretch:normal;text-align:center;text-anchor:middle;font-family:Cousine;-inkscape-font-specification:Cousine Bold"
           y="518.24823"
           x="254.0611"
           id="tspan4024"
           sodipodi:role="line">fork</tspan></text>
      <rect
         y="674.19788"
         x="299.56958"
         height="58.399677"
         width="270.01263"
         id="rect3990"
         style="fill:#e6e6e6;stroke:none" />
      <text
         xml:space="preserve"
         style="font-size:55.30748749px;font-style:normal;font-variant:normal;font-weight:bold;font-stretch:normal;line-height:125%;letter-spacing:0px;word-spacing:0px;fill:#000000;fill-opacity:1;stroke:none;font-family:Avara;-inkscape-font-specification:Avara Bold"
         x="434.47299"
         y="713.89001"
         id="text4053"
         sodipodi:linespacing="125%"><tspan
           sodipodi:role="line"
           id="tspan4055"
           x="434.47296"
           y="713.89001"
           style="font-size:31.61289787px;font-style:normal;font-variant:normal;font-weight:bold;font-stretch:normal;text-align:center;text-anchor:middle;fill:#000000;stroke:none;font-family:Cousine;-inkscape-font-specification:Cousine Bold">Pull request</tspan></text>
      <rect
         style="fill:#e6e6e6;stroke:none"
         id="rect4000"
         width="84.507767"
         height="58.399677"
         x="650.09015"
         y="672.84613" />
      <text
         sodipodi:linespacing="125%"
         id="text4061"
         y="712.53827"
         x="691.78064"
         style="font-size:55.30748749px;font-style:normal;font-variant:normal;font-weight:bold;font-stretch:normal;line-height:125%;letter-spacing:0px;word-spacing:0px;fill:#000000;fill-opacity:1;stroke:none;font-family:Avara;-inkscape-font-specification:Avara Bold"
         xml:space="preserve"><tspan
           style="font-size:31.61289787px;font-style:normal;font-variant:normal;font-weight:bold;font-stretch:normal;text-align:center;text-anchor:middle;fill:#000000;stroke:none;font-family:Cousine;-inkscape-font-specification:Cousine Bold"
           y="712.53827"
           x="691.78064"
           id="tspan4063"
           sodipodi:role="line">OK</tspan></text>
      <path
         style="fill:none;stroke:#000000;stroke-width:2.49104834;stroke-linecap:butt;stroke-linejoin:miter;stroke-miterlimit:8.80000019;stroke-opacity:1;stroke-dasharray:none;stroke-dashoffset:0;marker-start:none;marker-mid:none;marker-end:url(#Arrow2Mend);display:inline"
         d="M 140.03339,666.04687 233.89247,535.58162"
         id="path4073"
         inkscape:connector-type="polyline"
         inkscape:connector-curvature="0"
         inkscape:connection-end="#rect4020"
         inkscape:connection-end-point="d4"
         inkscape:connection-start="#rect3966"
         inkscape:connection-start-point="d4" />
      <path
         style="fill:none;stroke:#000000;stroke-width:0.3400749px;stroke-linecap:butt;stroke-linejoin:miter;stroke-opacity:1"
         d="m 434.5759,703.39771 0,0"
         id="path5097"
         inkscape:connector-type="polyline"
         inkscape:connector-curvature="0"
         inkscape:connection-start="#rect3990"
         inkscape:connection-start-point="d4"
         inkscape:connection-end="#rect3990"
         inkscape:connection-end-point="d4" />
      <path
         style="fill:#000000;fill-opacity:0;stroke:#000000;stroke-width:2.49104834;stroke-linecap:butt;stroke-linejoin:miter;stroke-miterlimit:8.80000019;stroke-opacity:1;stroke-dasharray:none;stroke-dashoffset:0;marker-start:none;marker-end:url(#Arrow2Mend);display:inline"
         d="m 435.20884,732.59755 2.75647,127.16606"
         id="path5103"
         inkscape:connector-type="polyline"
         inkscape:connector-curvature="2"
         inkscape:connection-end="#rect4030"
         inkscape:connection-end-point="d4"
         inkscape:connection-start="#rect3990"
         inkscape:connection-start-point="d4" />
      <path
         style="fill:#000000;fill-opacity:0;stroke:#000000;stroke-width:2.49104834;stroke-linecap:butt;stroke-linejoin:miter;stroke-miterlimit:8.80000019;stroke-opacity:1;stroke-dasharray:none;stroke-dashoffset:0;marker-start:none;marker-end:url(#Arrow2Mend);display:inline"
         d="M 390.42769,859.76361 167.19705,724.44655"
         id="path5105"
         inkscape:connector-type="polyline"
         inkscape:connector-curvature="2"
         inkscape:connection-end="#rect3966"
         inkscape:connection-end-point="d4"
         inkscape:connection-start="#rect4030"
         inkscape:connection-start-point="d4" />
      <path
         style="fill:none;stroke:#000000;stroke-width:2.49104857;stroke-linecap:butt;stroke-linejoin:miter;stroke-miterlimit:8.80000019;stroke-opacity:1;stroke-dasharray:none;stroke-dashoffset:0;marker-end:url(#Arrow2Mend);display:inline"
         d="m 569.58221,702.68974 80.50794,-0.42219"
         id="path5481"
         inkscape:connector-type="polyline"
         inkscape:connector-curvature="2"
         inkscape:connection-end="#rect4000"
         inkscape:connection-end-point="d4"
         inkscape:connection-start="#rect3990"
         inkscape:connection-start-point="d4" />
      <path
         style="fill:none;stroke:#000000;stroke-width:2.49104834;stroke-linecap:butt;stroke-linejoin:miter;stroke-miterlimit:8.80000019;stroke-opacity:1;stroke-dasharray:none;stroke-dashoffset:0;marker-end:url(#Arrow2Mend);display:inline"
         d="m 734.59792,701.89358 127.8676,-0.46114"
         id="path5483"
         inkscape:connector-type="polyline"
         inkscape:connector-curvature="2"
         inkscape:connection-end-point="d4"
         inkscape:connection-end="#rect4010"
         inkscape:connection-start-point="d4"
         inkscape:connection-start="#rect4000" />
      <path
         style="fill:#000000;fill-opacity:0;stroke:#000000;stroke-width:0.3400749px;stroke-linecap:butt;stroke-linejoin:miter;stroke-opacity:1"
         d="M 281.52932,535.58162 407.94594,674.19788"
         id="path9338"
         inkscape:connector-type="polyline"
         inkscape:connector-curvature="0"
         inkscape:connection-start="#rect4020"
         inkscape:connection-start-point="d4"
         inkscape:connection-end="#rect3990"
         inkscape:connection-end-point="d4" />
    </g>
  </g>
</svg>
