<?xml version="1.0" encoding="UTF-8" standalone="no"?>
<!-- Created with Inkscape (http://www.inkscape.org/) -->

<svg
   xmlns:dc="http://purl.org/dc/elements/1.1/"
   xmlns:cc="http://creativecommons.org/ns#"
   xmlns:rdf="http://www.w3.org/1999/02/22-rdf-syntax-ns#"
   xmlns:svg="http://www.w3.org/2000/svg"
   xmlns="http://www.w3.org/2000/svg"
   xmlns:sodipodi="http://sodipodi.sourceforge.net/DTD/sodipodi-0.dtd"
   xmlns:inkscape="http://www.inkscape.org/namespaces/inkscape"
   width="210mm"
   height="297mm"
   id="svg2"
   version="1.1"
   inkscape:version="0.48.1 r9760"
   sodipodi:docname="process01.svg">
  <defs
     id="defs4">
    <marker
       inkscape:stockid="Torso"
       orient="auto"
       refY="0.0"
       refX="0.0"
       id="Torso"
       style="overflow:visible">
      <g
         id="g4291"
         transform="scale(0.7)">
        <path
           id="path4293"
           d="M -4.7792281,-3.2395420 C -2.4288541,-2.8736027 0.52103922,-1.3019943 0.25792722,0.38794346 C -0.0051877922,2.0778819 -2.2126741,2.6176539 -4.5630471,2.2517169 C -6.9134221,1.8857769 -8.5210350,0.75201414 -8.2579220,-0.93792336 C -7.9948090,-2.6278615 -7.1296041,-3.6054813 -4.7792281,-3.2395420 z "
           style="fill:none;fill-opacity:0.75000000;fill-rule:evenodd;stroke:#000000;stroke-width:1.2500000;marker-start:none;marker-mid:none;marker-end:none" />
        <path
           id="path4295"
           d="M 4.4598789,0.088665736 C -2.5564571,-4.3783320 5.2248769,-3.9061806 -0.84829578,-8.7197331"
           style="fill:none;fill-opacity:0.75000000;fill-rule:evenodd;stroke:#000000;stroke-width:1.0000000pt;marker-end:none" />
        <path
           id="path4297"
           d="M 4.9298719,0.057520736 C -1.3872731,1.7494689 1.8027579,5.4782079 -4.9448731,7.5462725"
           style="fill:none;fill-opacity:0.75000000;fill-rule:evenodd;stroke:#000000;stroke-width:1.0000000pt;marker-start:none;marker-end:none" />
        <rect
           id="rect4299"
           transform="matrix(0.527536,-0.849533,0.887668,0.460484,0,0)"
           y="-1.7408575"
           x="-10.391706"
           height="2.7608147"
           width="2.6366582"
           style="fill-rule:evenodd;stroke-width:1.0000000pt;marker-end:none" />
        <rect
           id="rect4301"
           transform="matrix(0.671205,-0.741272,0.790802,0.612072,0,0)"
           y="-7.9629307"
           x="4.9587269"
           height="2.8614161"
           width="2.7327356"
           style="fill-rule:evenodd;stroke-width:1.0000000pt;marker-end:none" />
        <path
           id="path4303"
           transform="matrix(0,-1.109517,1.109517,0,25.96648,19.71619)"
           d="m 16.779951,-28.685045 c 0,0.335412 -0.271905,0.607317 -0.607317,0.607317 -0.335412,0 -0.607317,-0.271905 -0.607317,-0.607317 0,-0.335412 0.271905,-0.607318 0.607317,-0.607318 0.335412,0 0.607317,0.271906 0.607317,0.607318 z"
           sodipodi:ry="0.60731727"
           sodipodi:rx="0.60731727"
           sodipodi:cy="-28.685045"
           sodipodi:cx="16.172634"
           style="fill:#ff0000;fill-opacity:0.75000000;fill-rule:evenodd;stroke:#000000;stroke-width:1.0000000pt;marker-start:none;marker-end:none"
           sodipodi:type="arc" />
        <path
           id="path4305"
           transform="matrix(0,-1.109517,1.109517,0,26.82450,16.99126)"
           d="m 16.779951,-28.685045 c 0,0.335412 -0.271905,0.607317 -0.607317,0.607317 -0.335412,0 -0.607317,-0.271905 -0.607317,-0.607317 0,-0.335412 0.271905,-0.607318 0.607317,-0.607318 0.335412,0 0.607317,0.271906 0.607317,0.607318 z"
           sodipodi:ry="0.60731727"
           sodipodi:rx="0.60731727"
           sodipodi:cy="-28.685045"
           sodipodi:cx="16.172634"
           style="fill:#ff0000;fill-opacity:0.75000000;fill-rule:evenodd;stroke:#000000;stroke-width:1.0000000pt;marker-start:none;marker-end:none"
           sodipodi:type="arc" />
      </g>
    </marker>
    <marker
       inkscape:stockid="TriangleOutM"
       orient="auto"
       refY="0.0"
       refX="0.0"
       id="TriangleOutM"
       style="overflow:visible">
      <path
         id="path4224"
         d="M 5.77,0.0 L -2.88,5.0 L -2.88,-5.0 L 5.77,0.0 z "
         style="fill-rule:evenodd;stroke:#000000;stroke-width:1.0pt;marker-start:none"
         transform="scale(0.4)" />
    </marker>
    <marker
       inkscape:stockid="Arrow2Mend"
       orient="auto"
       refY="0.0"
       refX="0.0"
       id="Arrow2Mend"
       style="overflow:visible;">
      <path
         id="path4105"
         style="font-size:12.0;fill-rule:evenodd;stroke-width:0.62500000;stroke-linejoin:round;"
         d="M 8.7185878,4.0337352 L -2.2072895,0.016013256 L 8.7185884,-4.0017078 C 6.9730900,-1.6296469 6.9831476,1.6157441 8.7185878,4.0337352 z "
         transform="scale(0.6) rotate(180) translate(0,0)" />
    </marker>
    <marker
       inkscape:stockid="TriangleOutL"
       orient="auto"
       refY="0.0"
       refX="0.0"
       id="TriangleOutL"
       style="overflow:visible">
      <path
         id="path4221"
         d="M 5.77,0.0 L -2.88,5.0 L -2.88,-5.0 L 5.77,0.0 z "
         style="fill-rule:evenodd;stroke:#000000;stroke-width:1.0pt;marker-start:none"
         transform="scale(0.8)" />
    </marker>
    <marker
       inkscape:stockid="Arrow1Mend"
       orient="auto"
       refY="0.0"
       refX="0.0"
       id="Arrow1Mend"
       style="overflow:visible;">
      <path
         id="path4087"
         d="M 0.0,0.0 L 5.0,-5.0 L -12.5,0.0 L 5.0,5.0 L 0.0,0.0 z "
         style="fill-rule:evenodd;stroke:#000000;stroke-width:1.0pt;marker-start:none;"
         transform="scale(0.4) rotate(180) translate(10,0)" />
    </marker>
    <marker
       inkscape:stockid="Arrow2Lend"
       orient="auto"
       refY="0.0"
       refX="0.0"
       id="Arrow2Lend"
       style="overflow:visible;">
      <path
         id="path4099"
         style="font-size:12.0;fill-rule:evenodd;stroke-width:0.62500000;stroke-linejoin:round;"
         d="M 8.7185878,4.0337352 L -2.2072895,0.016013256 L 8.7185884,-4.0017078 C 6.9730900,-1.6296469 6.9831476,1.6157441 8.7185878,4.0337352 z "
         transform="scale(1.1) rotate(180) translate(1,0)" />
    </marker>
    <marker
       inkscape:stockid="Arrow1Lend"
       orient="auto"
       refY="0.0"
       refX="0.0"
       id="Arrow1Lend"
       style="overflow:visible;">
      <path
         id="path4081"
         d="M 0.0,0.0 L 5.0,-5.0 L -12.5,0.0 L 5.0,5.0 L 0.0,0.0 z "
         style="fill-rule:evenodd;stroke:#000000;stroke-width:1.0pt;marker-start:none;"
         transform="scale(0.8) rotate(180) translate(12.5,0)" />
    </marker>
  </defs>
  <sodipodi:namedview
     id="base"
     pagecolor="#ffffff"
     bordercolor="#666666"
     borderopacity="1.0"
     inkscape:pageopacity="0.0"
     inkscape:pageshadow="2"
     inkscape:zoom="0.21969366"
     inkscape:cx="-54.834156"
     inkscape:cy="-38.034177"
     inkscape:document-units="px"
     inkscape:current-layer="text2985"
     showgrid="false"
     inkscape:window-width="1390"
     inkscape:window-height="835"
     inkscape:window-x="60"
     inkscape:window-y="76"
     inkscape:window-maximized="0"
     inkscape:connector-spacing="61">
    <inkscape:grid
       type="xygrid"
       id="grid3084" />
  </sodipodi:namedview>
  <metadata
     id="metadata7">
    <rdf:RDF>
      <cc:Work
         rdf:about="">
        <dc:format>image/svg+xml</dc:format>
        <dc:type
           rdf:resource="http://purl.org/dc/dcmitype/StillImage" />
      </cc:Work>
    </rdf:RDF>
  </metadata>
  <g
     inkscape:label="Calque 1"
     inkscape:groupmode="layer"
     id="layer1">
    <g
       style="font-size:130.56945801px;font-style:normal;font-variant:normal;font-weight:bold;font-stretch:normal;line-height:125%;letter-spacing:0px;word-spacing:0px;fill:#000000;fill-opacity:1;stroke:none;font-family:Avara;-inkscape-font-specification:Avara Bold"
       id="text2985">
      <rect
         style="fill:#e6e6e6;stroke:none"
         id="rect4030"
         width="406.0813"
         height="171.72594"
         x="1787.6781"
         y="2071.009" />
      <text
         xml:space="preserve"
         style="font-size:162.63327026px;font-style:normal;font-variant:normal;font-weight:bold;font-stretch:normal;line-height:125%;letter-spacing:0px;word-spacing:0px;fill:#000000;fill-opacity:1;stroke:none;font-family:Avara;-inkscape-font-specification:Avara Bold"
         x="1987.6322"
         y="2185.7656"
         id="text4065"
         sodipodi:linespacing="125%"><tspan
           sodipodi:role="line"
           id="tspan4067"
           x="1987.6322"
           y="2185.7656"
           style="font-size:92.95864105px;font-style:normal;font-variant:normal;font-weight:bold;font-stretch:normal;text-align:center;text-anchor:middle;fill:#000000;stroke:none;font-family:Cousine;-inkscape-font-specification:Cousine Bold">not OK</tspan></text>
      <rect
         y="333.58856"
         x="-2194.9458"
         height="293.75644"
         width="1362.5573"
         id="rect3111"
         style="fill:#000000;fill-opacity:1;fill-rule:nonzero;stroke:none" />
      <g
         style="fill:#ffffff"
         transform="translate(-761.29839,170.47342)"
         id="g3079">
        <path
           style="fill:#ffffff"
           d="m -1312.52,345.36532 5.2227,5.22278 31.3367,0 10.4456,-20.89112 5.2227,0 0,26.11389 -78.3416,0 10.4455,-10.44555 0,-83.56446 -10.4455,-10.44555 36.5594,0 -10.4455,10.44555 0,83.56446"
           id="path3081"
           inkscape:connector-curvature="0" />
        <path
           style="fill:#ffffff"
           d="m -1252.2889,293.13753 26.1139,-10.44555 0,62.67334 10.4456,10.44555 -36.5595,0 10.4456,-10.44555 0,-47.00501 -10.4456,-5.22278 m 15.6684,-15.66833 -10.4456,-5.22278 0,-5.22278 5.2228,-10.44555 5.2228,0 10.4455,5.22277 0,5.22278 -5.2227,10.44556 -5.2228,0"
           id="path3083"
           inkscape:connector-curvature="0" />
        <path
           style="fill:#ffffff"
           d="m -1202.5704,261.80086 0,94.01001 10.4455,-10.44555 5.2228,5.22278 10.4455,5.22277 10.4456,0 15.6683,-5.22277 10.4456,-20.89112 0,-20.89111 -10.4456,-20.89111 -15.6683,-5.22278 -10.4456,0 -10.4455,5.22278 0,-41.78223 -26.1139,10.44556 10.4456,5.22277 m 31.3366,26.1139 10.4456,5.22277 5.2228,26.1139 -5.2228,26.11389 -10.4456,5.22278 -10.4455,-5.22278 -5.2228,-10.44556 0,-31.33667 5.2228,-10.44556 10.4455,-5.22277"
           id="path3085"
           inkscape:connector-curvature="0" />
        <path
           style="fill:#ffffff"
           d="m -1102.8972,282.69198 0,20.89111 10.4456,-15.66833 10.4456,-5.22278 10.4455,5.22278 5.2228,10.44555 -15.6683,10.44556 -5.2228,-10.44556 -5.2228,0 -10.4456,15.66834 0,31.33667 10.4456,10.44555 -36.5594,0 10.4455,-10.44555 0,-47.00501 -10.4455,-5.22278 26.1138,-10.44555"
           id="path3087"
           inkscape:connector-curvature="0" />
        <path
           style="fill:#ffffff"
           d="m -1032.8098,282.69198 10.4456,0 15.6683,5.22278 10.44558,20.89111 -5.22278,10.44556 -41.7822,5.22277 5.2228,20.89112 15.6683,5.22278 10.4455,-5.22278 5.2228,-10.44556 10.44558,5.22278 -10.44558,10.44556 -10.4455,5.22277 -15.6684,0 -15.6683,-5.22277 -10.4456,-20.89112 0,-20.89111 10.4456,-20.89111 15.6683,-5.22278 m 5.2228,5.22278 -10.4455,5.22277 -5.2228,26.1139 26.1139,-5.22278 0,-20.89112 -10.4456,-5.22277"
           id="path3089"
           inkscape:connector-curvature="0" />
        <path
           style="fill:#ffffff"
           d="m -862.66342,324.4742 -37.08173,0 -7.44246,20.89112 10.44556,10.44555 -31.33667,0 10.44556,-10.44555 31.33667,-83.56446 0,-5.22277 15.66833,-5.22278 31.07553,94.01001 11.75125,10.44555 -32.64236,0 5.22278,-10.44555 -7.44246,-20.89112 m -1.82797,-5.22277 -16.58233,-47.00501 -16.84346,47.00501 33.42579,0"
           id="path3091"
           inkscape:connector-curvature="0" />
        <path
           style="fill:#ffffff"
           d="m -780.54683,303.58309 -5.22278,-15.66833 -10.44556,0 -10.44556,5.22277 0,10.44556 36.55945,15.66834 5.22278,10.44555 -10.44556,20.89112 -20.89111,5.22277 -5.22278,0 -15.66833,-5.22277 -10.44556,-10.44556 10.44556,-10.44556 5.22278,15.66834 10.44555,5.22278 15.66834,-5.22278 5.22278,-5.22278 0,-5.22278 -36.55945,-20.89111 -5.22278,-10.44556 5.22278,-15.66833 15.66833,-5.22278 20.89112,0 10.44555,10.44555 -10.44555,10.44556"
           id="path3093"
           inkscape:connector-curvature="0" />
        <path
           style="fill:#ffffff"
           d="m -712.71193,303.58309 -5.22278,-15.66833 -10.44556,0 -10.44556,5.22277 0,10.44556 36.55945,15.66834 5.22278,10.44555 -10.44556,20.89112 -20.89111,5.22277 -5.22278,0 -15.66833,-5.22277 -10.44556,-10.44556 10.44556,-10.44556 5.22278,15.66834 10.44555,5.22278 15.66834,-5.22278 5.22278,-5.22278 0,-5.22278 -36.55945,-20.89111 -5.22278,-10.44556 5.22278,-15.66833 15.66833,-5.22278 20.89112,0 10.44555,10.44555 -10.44555,10.44556"
           id="path3095"
           inkscape:connector-curvature="0" />
        <path
           style="fill:#ffffff"
           d="m -663.15676,282.69198 10.44556,0 15.66833,5.22278 10.44556,20.89111 -5.22278,10.44556 -41.78223,5.22277 5.22278,20.89112 15.66834,5.22278 10.44555,-5.22278 5.22278,-10.44556 10.44556,5.22278 -10.44556,10.44556 -10.44555,5.22277 -15.66834,0 -15.66833,-5.22277 -10.44556,-20.89112 0,-20.89111 10.44556,-20.89111 15.66833,-5.22278 m 5.22278,5.22278 -10.44556,5.22277 -5.22278,26.1139 26.1139,-5.22278 0,-20.89112 -10.44556,-5.22277"
           id="path3097"
           inkscape:connector-curvature="0" />
        <path
           style="fill:#ffffff"
           d="m -623.33279,355.81087 10.44556,-10.44555 0,-47.00501 -10.44556,-5.22278 26.11389,-10.44555 0,15.66833 10.44556,-10.44555 10.44556,-5.22278 20.89111,5.22278 5.22278,10.44555 10.44555,-10.44555 10.44556,-5.22278 20.89111,5.22278 5.22278,10.44555 0,47.00501 10.44556,10.44555 -36.55945,0 10.44556,-10.44555 0,-47.00501 -5.22278,-5.22278 -10.44556,0 -15.66833,15.66834 0,36.55945 10.44555,10.44555 -36.55944,0 0,0 10.44555,-10.44555 0,-47.00501 -5.22278,-5.22278 -10.44555,0 -15.66834,15.66834 0,36.55945 10.44556,10.44555 -36.55945,0"
           id="path3099"
           inkscape:connector-curvature="0" />
        <path
           style="fill:#ffffff"
           d="m -482.31777,261.80086 0,94.01001 10.44555,-10.44555 5.22278,5.22278 10.44556,5.22277 10.44555,0 15.66834,-5.22277 10.44556,-20.89112 0,-20.89111 -10.44556,-20.89111 -15.66834,-5.22278 -10.44555,0 -10.44556,5.22278 0,-41.78223 -26.11389,10.44556 10.44556,5.22277 m 31.33667,26.1139 10.44555,5.22277 5.22278,26.1139 -5.22278,26.11389 -10.44555,5.22278 -10.44556,-5.22278 -5.22278,-10.44556 0,-31.33667 5.22278,-10.44556 10.44556,-5.22277"
           id="path3101"
           inkscape:connector-curvature="0" />
        <path
           style="fill:#ffffff"
           d="m -415.18697,256.57809 26.11389,-10.44556 0,99.23279 10.44556,10.44555 -36.55945,0 10.44556,-10.44555 0,-83.56446 -10.44556,-5.22277"
           id="path3103"
           inkscape:connector-curvature="0" />
        <path
           style="fill:#ffffff"
           d="m -356.26706,282.69198 15.66833,0 20.89111,10.44555 0,52.22779 10.44556,0 0,5.22278 -15.66833,5.22277 -10.44556,-10.44555 -5.22278,5.22278 -15.66833,5.22277 -5.22278,0 -10.44556,-20.89111 0,-15.66833 36.55945,-10.44556 0,-10.44556 -5.22278,-10.44555 -15.66833,5.22277 -5.22278,10.44556 -10.44556,-10.44556 15.66834,-10.44555 m 20.89111,31.33667 -20.89111,10.44555 0,10.44556 5.22277,10.44556 5.22278,0 10.44556,-10.44556 0,-20.89111"
           id="path3105"
           inkscape:connector-curvature="0" />
        <path
           style="fill:#ffffff"
           d="m -237.63289,277.73034 5.22277,15.66833 -5.22277,0 -13.57923,-2.08911 8.35645,12.53467 0,15.66833 -5.22278,5.22278 -15.66834,10.44556 -15.66833,5.22278 26.11389,10.44555 15.66834,15.66834 0,10.44556 -10.44556,15.66833 -15.66834,5.22278 -10.44555,0 -20.89111,-5.22278 -10.44556,-15.66833 0,-10.44556 20.89111,-15.66834 -15.66833,-5.22277 5.22278,-5.22278 15.66833,-5.22278 -15.66833,-5.22278 -10.44556,-10.44556 0,-15.66833 10.44556,-15.66834 15.66833,-5.22277 10.44556,0 15.66833,5.22277 5.22278,-5.22277 10.44556,-5.22278 m -36.55945,10.44555 -10.44556,5.22278 -5.22277,15.66834 5.22277,15.66833 10.44556,5.22278 10.44555,-5.22278 5.22278,-15.66833 -5.22278,-15.66834 -10.44555,-5.22278 m -5.22278,67.89612 -10.44555,10.44556 0,10.44556 10.44555,10.44555 20.89111,5.22278 5.22278,-10.44556 0,-10.44555 -10.44556,-10.44556 -15.66833,-5.22278"
           id="path3107"
           inkscape:connector-curvature="0" />
        <path
           style="fill:#ffffff"
           d="m -202.66284,282.69198 10.44555,0 15.66834,5.22278 10.44555,20.89111 -5.22277,10.44556 -41.78223,5.22277 5.22278,20.89112 15.66833,5.22278 10.44556,-5.22278 5.22278,-10.44556 10.44555,5.22278 -10.44555,10.44556 -10.44556,5.22277 -15.66833,0 -15.66834,-5.22277 -10.44555,-20.89112 0,-20.89111 10.44555,-20.89111 15.66834,-5.22278 m 5.22277,5.22278 -10.44555,5.22277 -5.22278,26.1139 26.11389,-5.22278 0,-20.89112 -10.44556,-5.22277"
           id="path3109"
           inkscape:connector-curvature="0" />
      </g>
      <rect
         style="fill:#e6e6e6;stroke:none"
         id="rect3966"
         width="341.43155"
         height="171.72594"
         x="880.29303"
         y="1501.3793" />
      <text
         xml:space="preserve"
         style="font-size:125.96564484px;font-style:normal;font-variant:normal;font-weight:bold;font-stretch:normal;line-height:125%;letter-spacing:0px;word-spacing:0px;fill:#000000;fill-opacity:1;stroke:none;font-family:Avara;-inkscape-font-specification:Avara Bold"
         x="951.14172"
         y="1616.6133"
         id="text3968"
         sodipodi:linespacing="125%"><tspan
           sodipodi:role="line"
           id="tspan3970"
           x="951.14172"
           y="1616.6133"
           style="font-style:normal;font-variant:normal;font-weight:bold;font-stretch:normal;fill:#000000;stroke:none;font-family:Cousine;-inkscape-font-specification:Cousine Bold">V.<tspan
   style="font-size:81.87882233px;baseline-shift:sub;fill:#000000;stroke:none"
   id="tspan3972">X</tspan></tspan></text>
      <rect
         y="1518.7999"
         x="3237.1128"
         height="171.72594"
         width="426.28436"
         id="rect4010"
         style="fill:#e6e6e6;stroke:none" />
      <text
         sodipodi:linespacing="125%"
         id="text4012"
         y="1634.0339"
         x="3302.7087"
         style="font-size:125.96564484px;font-style:normal;font-variant:normal;font-weight:bold;font-stretch:normal;line-height:125%;letter-spacing:0px;word-spacing:0px;fill:#000000;fill-opacity:1;stroke:none;font-family:Avara;-inkscape-font-specification:Avara Bold"
         xml:space="preserve"><tspan
           style="font-style:normal;font-variant:normal;font-weight:bold;font-stretch:normal;fill:#000000;stroke:none;font-family:Cousine;-inkscape-font-specification:Cousine Bold"
           y="1634.0339"
           x="3302.7087"
           id="tspan4014"
           sodipodi:role="line">V.<tspan
   id="tspan4016"
   style="font-size:81.87882233px;baseline-shift:sub;fill:#000000;stroke:none">X+1</tspan></tspan></text>
      <rect
         y="946.0166"
         x="1279.8311"
         height="171.72594"
         width="341.43155"
         id="rect4020"
         style="fill:#e6e6e6;stroke:none" />
      <text
         sodipodi:linespacing="125%"
         id="text4022"
         y="1066.7732"
         x="1448.082"
         style="font-size:162.63327026px;font-style:normal;font-variant:normal;font-weight:bold;font-stretch:normal;line-height:125%;letter-spacing:0px;word-spacing:0px;fill:#000000;fill-opacity:1;stroke:none;font-family:Avara;-inkscape-font-specification:Avara Bold"
         xml:space="preserve"><tspan
           style="font-size:92.95864105px;font-style:normal;font-variant:normal;font-weight:bold;font-stretch:normal;text-align:center;text-anchor:middle;font-family:Cousine;-inkscape-font-specification:Cousine Bold"
           y="1066.7732"
           x="1448.082"
           id="tspan4024"
           sodipodi:role="line">fork</tspan></text>
      <rect
         y="1525.3475"
         x="1581.901"
         height="171.72594"
         width="793.97998"
         id="rect3990"
         style="fill:#e6e6e6;stroke:none" />
      <text
         xml:space="preserve"
         style="font-size:162.63327026px;font-style:normal;font-variant:normal;font-weight:bold;font-stretch:normal;line-height:125%;letter-spacing:0px;word-spacing:0px;fill:#000000;fill-opacity:1;stroke:none;font-family:Avara;-inkscape-font-specification:Avara Bold"
         x="1978.5883"
         y="1642.0636"
         id="text4053"
         sodipodi:linespacing="125%"><tspan
           sodipodi:role="line"
           id="tspan4055"
           x="1978.5883"
           y="1642.0636"
           style="font-size:92.95864105px;font-style:normal;font-variant:normal;font-weight:bold;font-stretch:normal;text-align:center;text-anchor:middle;fill:#000000;stroke:none;font-family:Cousine;-inkscape-font-specification:Cousine Bold">Pull request</tspan></text>
      <rect
         style="fill:#e6e6e6;stroke:none"
         id="rect4000"
         width="248.49751"
         height="171.72594"
         x="2612.6169"
         y="1521.3727" />
      <text
         sodipodi:linespacing="125%"
         id="text4061"
         y="1638.0886"
         x="2735.209"
         style="font-size:162.63327026px;font-style:normal;font-variant:normal;font-weight:bold;font-stretch:normal;line-height:125%;letter-spacing:0px;word-spacing:0px;fill:#000000;fill-opacity:1;stroke:none;font-family:Avara;-inkscape-font-specification:Avara Bold"
         xml:space="preserve"><tspan
           style="font-size:92.95864105px;font-style:normal;font-variant:normal;font-weight:bold;font-stretch:normal;text-align:center;text-anchor:middle;fill:#000000;stroke:none;font-family:Cousine;-inkscape-font-specification:Cousine Bold"
           y="1638.0886"
           x="2735.209"
           id="tspan4063"
           sodipodi:role="line">OK</tspan></text>
      <path
         style="fill:none;stroke:#000000;stroke-width:7.32499981;stroke-linecap:butt;stroke-linejoin:miter;stroke-miterlimit:8.80000019;stroke-opacity:1;stroke-dasharray:none;stroke-dashoffset:0;marker-start:none;marker-mid:none;marker-end:url(#Arrow2Mend);display:inline"
         d="m 1112.7802,1501.3793 275.9952,-383.6368"
         id="path4073"
         inkscape:connector-type="polyline"
         inkscape:connector-curvature="0"
         inkscape:connection-end="#rect4020"
         inkscape:connection-end-point="d4"
         inkscape:connection-start="#rect3966"
         inkscape:connection-start-point="d4" />
      <path
         style="fill:none;stroke:#000000;stroke-width:1px;stroke-linecap:butt;stroke-linejoin:miter;stroke-opacity:1"
         d="m 1978.891,1611.2105 0,0"
         id="path5097"
         inkscape:connector-type="polyline"
         inkscape:connector-curvature="0"
         inkscape:connection-start="#rect3990"
         inkscape:connection-start-point="d4"
         inkscape:connection-end="#rect3990"
         inkscape:connection-end-point="d4" />
      <path
         style="fill:#000000;fill-opacity:0;stroke:#000000;stroke-width:7.32499981;stroke-linecap:butt;stroke-linejoin:miter;stroke-miterlimit:8.80000019;stroke-opacity:1;stroke-dasharray:none;stroke-dashoffset:0;marker-start:none;marker-end:url(#Arrow2Mend);display:inline"
         d="m 1980.7522,1697.0735 8.1054,373.9355"
         id="path5103"
         inkscape:connector-type="polyline"
         inkscape:connector-curvature="2"
         inkscape:connection-end="#rect4030"
         inkscape:connection-end-point="d4"
         inkscape:connection-start="#rect3990"
         inkscape:connection-start-point="d4" />
      <path
         style="fill:#000000;fill-opacity:0;stroke:#000000;stroke-width:7.32499981;stroke-linecap:butt;stroke-linejoin:miter;stroke-miterlimit:8.80000019;stroke-opacity:1;stroke-dasharray:none;stroke-dashoffset:0;marker-start:none;marker-end:url(#Arrow2Mend);display:inline"
         d="M 1849.0719,2071.009 1192.6557,1673.1052"
         id="path5105"
         inkscape:connector-type="polyline"
         inkscape:connector-curvature="2"
         inkscape:connection-end="#rect3966"
         inkscape:connection-end-point="d4"
         inkscape:connection-start="#rect4030"
         inkscape:connection-start-point="d4" />
      <path
         style="fill:none;stroke:#000000;stroke-width:7.32500029;stroke-linecap:butt;stroke-linejoin:miter;stroke-miterlimit:8.80000019;stroke-opacity:1;stroke-dasharray:none;stroke-dashoffset:0;marker-end:url(#Arrow2Mend);display:inline"
         d="m 2375.881,1609.1287 236.7359,-1.2415"
         id="path5481"
         inkscape:connector-type="polyline"
         inkscape:connector-curvature="2"
         inkscape:connection-end="#rect4000"
         inkscape:connection-end-point="d4"
         inkscape:connection-start="#rect3990"
         inkscape:connection-start-point="d4" />
      <path
         style="fill:none;stroke:#000000;stroke-width:7.32499981;stroke-linecap:butt;stroke-linejoin:miter;stroke-miterlimit:8.80000019;stroke-opacity:1;stroke-dasharray:none;stroke-dashoffset:0;marker-end:url(#Arrow2Mend);display:inline"
         d="m 2861.1145,1606.7876 375.9983,-1.356"
         id="path5483"
         inkscape:connector-type="polyline"
         inkscape:connector-curvature="2"
         inkscape:connection-end-point="d4"
         inkscape:connection-end="#rect4010"
         inkscape:connection-start-point="d4"
         inkscape:connection-start="#rect4000" />
      <rect
         style="fill:#000000;fill-opacity:1;fill-rule:nonzero;stroke:#000000"
         id="rect6100"
         width="273.5813"
         height="276.7999"
         x="885.11597"
         y="-434.63263"
         inkscape:connector-avoid="true" />
      <rect
         y="44.93927"
         x="1631.8319"
         height="276.7999"
         width="273.5813"
         id="rect6102"
         style="fill:#000000;fill-opacity:1;fill-rule:nonzero;stroke:#000000" />
      <path
         style="fill:none;stroke:#000000;stroke-width:21.875;stroke-linecap:butt;stroke-linejoin:miter;stroke-miterlimit:4;stroke-opacity:1;stroke-dasharray:none;marker-mid:none;marker-end:url(#Arrow2Mend)"
         d="M 1158.6973,-208.38006 1631.8319,95.486599"
         id="path6112"
         inkscape:connector-type="polyline"
         inkscape:connector-curvature="0"
         inkscape:connection-start="#rect6100"
         inkscape:connection-start-point="d4"
         inkscape:connection-end="#rect6102"
         inkscape:connection-end-point="d4" />
      <path
         style="fill:#000000;fill-opacity:0;stroke:#000000;stroke-width:1px;stroke-linecap:butt;stroke-linejoin:miter;stroke-opacity:1"
         d="m 1528.853,1117.7425 371.7318,407.605"
         id="path9338"
         inkscape:connector-type="polyline"
         inkscape:connector-curvature="0"
         inkscape:connection-start="#rect4020"
         inkscape:connection-start-point="d4"
         inkscape:connection-end="#rect3990"
         inkscape:connection-end-point="d4" />
      <path
         style="fill:none;stroke:#000000;stroke-width:4.49918604;stroke-linecap:butt;stroke-linejoin:miter;stroke-miterlimit:4;stroke-opacity:1;stroke-dasharray:none"
         d="m -1219.279,1268.5109 28.0765,-21.4703 -1.6515,180.0202 36.3343,-125.5187 14.864,-33.0312 24.7735,-18.1672 31.3797,0 -8.2579,171.7624 -4.9547,-109.0031 -52.8499,-6.6062 170.11082,-62.7593 -72.66872,130.4733 8.2578,41.2891 47.8953,9.9093 26.42499,-42.9406 -52.84999,-41.289 38.87666,-62.2026 37.09519,-28.6333 40.63853,-8.2578 33.03122,26.425 -3.30312,29.7281 -62.10882,72.6687 -11.56094,49.5468 90.83588,-6.6062"
         id="path3069"
         inkscape:connector-curvature="0"
         sodipodi:nodetypes="cccccccccccccccccccccccc" />
    </g>
  </g>
</svg>
